<svg width="306" height="145" viewBox="0 0 306 145" fill="none" xmlns="http://www.w3.org/2000/svg">
<path fill-rule="evenodd" clip-rule="evenodd" d="M52.584 2.68744L53.0041 3.61125L53.1722 6.46666L53.6763 8.81818L54.3485 10.3299L55.777 11.4216L58.2977 12.0935L61.8267 12.4294L62.2469 12.6814V13.0173L61.8267 13.2693L57.1214 13.7732L55.2728 14.445L54.3485 15.2009L51.8278 21.0796L47.2904 27.7983L45.778 30.8216L45.2738 32.6693V35.3567L45.6099 36.8684L46.9543 39.5558L50.4834 43.419L49.055 43.3351L48.3828 42.8312L45.778 39.5558L44.4336 36.5325L44.2655 32.1654L45.1058 29.4779L46.1141 27.4623L49.8112 21.2476L50.6514 18.7281L50.8195 16.2087L50.4834 15.2009L48.8869 14.1091L47.0384 13.6052L43.3413 13.2693L42.9211 13.0173V12.6814L49.055 11.5896L50.6514 10.4978L51.6597 7.64242L52.1639 3.10735L52.5 2.77142L52.584 2.68744ZM28.2168 22.8433L28.4689 23.5991L26.7884 27.1264L26.2842 28.974V30.6537L26.9564 31.9974L30.4014 34.9368L39.8122 40.6476L45.694 43.503L50.3994 45.0147H54.4326L60.1463 43.1671L70.3973 37.6242L76.7832 33.2571L78.3797 31.4935L78.7158 29.4779L78.3797 27.7983L76.5311 23.4312L76.6151 23.0112L77.3714 23.4312L79.8921 26.9584L82.1608 28.7221H84.6815L89.723 26.5385L90.3112 26.7905L86.194 30.0658L84.4295 32.5013L84.5975 35.0208L86.6141 39.8918L86.5301 40.3117L85.6058 39.7238L83.4212 36.5325L81.6566 34.9368L80.6483 34.6009L77.9595 34.9368L70.3973 38.632L63.3392 42.9991L59.306 46.0225L57.0373 48.29L55.1888 50.9775L53.8444 55.1766L53.1722 60.5515L53.0041 72.9809L53.6763 80.2035L54.3485 81.8831L55.777 82.9749L58.8019 83.6468L61.8267 83.8147L62.2469 84.2346L61.9948 84.4866L56.2811 85.4944L55.1048 85.9983L54.1805 86.9221L53.3402 89.4416L52.668 94.3126L52.1639 94.1446L51.8278 90.2814L51.3236 88.0978L50.6514 86.7541L49.8952 85.9983L48.7189 85.4944L43.6774 84.6545L42.7531 84.2346L43.1732 83.8147L46.8703 83.4788L49.7272 82.639L50.6514 81.7151L51.4917 79.1957L51.9958 73.8208L51.8278 60.5515L50.9875 54.3368L49.9792 51.3134L49.139 49.8017L45.694 46.0225L41.6608 42.9991L33.5944 38.1281L26.8724 34.9368H23.5114L21.9149 36.1965L19.2261 39.8918L18.806 40.3117L18.3859 40.2277L20.2344 35.5247L20.5705 34.1809L20.4025 32.1654L18.806 30.0658L14.9409 27.2104L14.6888 26.6225L15.7811 26.7065L20.4865 28.7221H22.8392L25.1079 26.9584L28.1328 22.9273L28.2168 22.8433ZM61.8267 48.7099H63.8433L66.196 49.2138L68.0446 50.0537L69.7251 51.2294L72.4979 54.5048L74.8506 58.5359L76.3631 60.5515L78.6317 62.819L80.1442 63.6589L81.6566 63.8268L83.1691 63.155L87.2023 58.9558H87.5384L87.6224 59.3758L84.9336 64.4147L84.7655 66.9342L85.6058 68.6139L89.4709 72.645L88.8828 72.897L83.8413 70.0416L81.6566 69.8736L79.1359 71.3853L75.6068 74.7446L75.5228 74.1567L75.8589 73.4848L78.3797 69.2857L78.5477 66.9342L78.2116 66.0944L75.3548 62.2312L71.9938 55.8485L70.6494 53.8329L68.2126 51.3974L64.8516 49.8857H60.4823L57.6255 50.7255L57.2054 50.4736L58.2977 49.3818L61.7427 48.7939L61.8267 48.7099ZM49.223 53.5809L49.8112 54.8407V55.8485L49.307 57.3602L47.4585 60.5515L44.6857 62.6511L43.0052 63.3229L39.9803 63.8268L31.5778 63.9948L28.5529 64.8346L26.7884 66.0944L26.2842 67.1022V68.6139L28.3008 73.6528L28.3848 74.5766L27.4606 73.8208L24.9398 70.4615L22.8392 68.8658H20.3184L15.6131 70.8814L14.9409 71.0494L14.6888 70.7974L15.1089 70.2095L19.3102 67.0182L20.2344 65.9264L20.7386 64.7506L20.5705 62.5671L18.5539 57.3602L18.9741 57.2762L19.3942 57.6961L20.4025 59.3758L23.0072 62.3151L24.5197 62.987L30.0653 62.3151L40.6525 62.6511L43.5093 61.9792L45.1898 61.1394L46.7863 59.7117L48.1307 57.5281L49.139 53.6649L49.223 53.5809Z" fill="white"/>
<path d="M124.872 71V52.44L108.68 25.56H113.864L127.048 48.024L140.232 25.56H145.416L129.224 52.44V71H124.872ZM157.905 71.768C154.961 71.768 152.444 71.2987 150.353 70.36C148.305 69.3787 146.705 68.0347 145.553 66.328C144.401 64.6213 143.74 62.7013 143.569 60.568L147.985 60.248C148.241 62.5093 149.18 64.3227 150.801 65.688C152.465 67.0533 154.833 67.736 157.905 67.736C160.593 67.736 162.684 67.288 164.177 66.392C165.67 65.496 166.417 64.1093 166.417 62.232C166.417 61.208 166.182 60.3547 165.713 59.672C165.286 58.9467 164.39 58.328 163.025 57.816C161.66 57.2613 159.612 56.7493 156.881 56.28C153.681 55.6827 151.185 54.9787 149.393 54.168C147.601 53.3147 146.342 52.2693 145.617 51.032C144.892 49.752 144.529 48.2373 144.529 46.488C144.529 43.4587 145.617 41.0053 147.793 39.128C149.969 37.2507 152.998 36.312 156.881 36.312C159.526 36.312 161.766 36.8027 163.601 37.784C165.478 38.7653 166.95 40.0667 168.017 41.688C169.084 43.2667 169.788 45.016 170.129 46.936L165.713 47.32C165.457 45.9973 164.966 44.824 164.241 43.8C163.516 42.7333 162.534 41.9013 161.297 41.304C160.06 40.664 158.566 40.344 156.817 40.344C154.257 40.344 152.294 40.8987 150.929 42.008C149.606 43.0747 148.945 44.504 148.945 46.296C148.945 47.5333 149.222 48.5573 149.777 49.368C150.332 50.136 151.249 50.776 152.529 51.288C153.809 51.7573 155.58 52.184 157.841 52.568C161.212 53.1227 163.836 53.8267 165.713 54.68C167.633 55.4907 168.977 56.5147 169.745 57.752C170.513 58.9467 170.897 60.4187 170.897 62.168C170.897 64.216 170.342 65.9653 169.233 67.416C168.124 68.824 166.588 69.912 164.625 70.68C162.705 71.4053 160.465 71.768 157.905 71.768ZM178.436 71V25.56H182.66V56.408L201.028 37.08H206.66L192.708 51.544L207.492 71H202.372L189.892 54.36L182.66 61.784V71H178.436ZM225.74 71.768C222.497 71.768 219.745 71.0213 217.484 69.528C215.223 67.992 213.473 65.9013 212.236 63.256C211.041 60.568 210.444 57.496 210.444 54.04C210.444 50.584 211.041 47.5333 212.236 44.888C213.431 42.2 215.137 40.1093 217.356 38.616C219.617 37.08 222.327 36.312 225.484 36.312C228.513 36.312 231.137 37.0373 233.356 38.488C235.575 39.9387 237.26 41.9867 238.412 44.632C239.607 47.2773 240.204 50.3707 240.204 53.912V55.256H214.86C215.031 59.2667 216.076 62.36 217.996 64.536C219.916 66.6693 222.497 67.736 225.74 67.736C228.215 67.736 230.241 67.1387 231.82 65.944C233.399 64.7493 234.487 63.1707 235.084 61.208L239.628 61.528C238.775 64.5147 237.132 66.968 234.7 68.888C232.268 70.808 229.281 71.768 225.74 71.768ZM214.86 51.48H235.596C235.383 47.8533 234.38 45.1013 232.588 43.224C230.796 41.304 228.428 40.344 225.484 40.344C222.54 40.344 220.129 41.304 218.252 43.224C216.375 45.144 215.244 47.896 214.86 51.48ZM253.913 71L243.097 37.08H247.705L256.473 66.584L265.113 37.08H269.593L278.233 66.584L287.065 37.08H291.673L280.857 71H275.609L267.353 43.48L259.161 71H253.913Z" fill="white"/>
<path d="M8.03906 130.797H3.23438L3.21094 129.578H7.34766C8.19141 129.578 8.91016 129.457 9.50391 129.215C10.0977 128.973 10.5469 128.613 10.8516 128.137C11.1641 127.652 11.3203 127.059 11.3203 126.355C11.3203 125.637 11.168 125.043 10.8633 124.574C10.5586 124.098 10.1016 123.746 9.49219 123.52C8.88281 123.293 8.11719 123.18 7.19531 123.18H3.60938V139H2.16797V121.938H7.19531C8.0625 121.938 8.83984 122.023 9.52734 122.195C10.2148 122.367 10.8008 122.637 11.2852 123.004C11.7695 123.371 12.1367 123.836 12.3867 124.398C12.6445 124.953 12.7734 125.617 12.7734 126.391C12.7734 127.094 12.6172 127.73 12.3047 128.301C11.9922 128.863 11.5508 129.324 10.9805 129.684C10.418 130.035 9.74219 130.254 8.95312 130.34L8.03906 130.797ZM7.93359 139H2.77734L3.51562 137.77H7.93359C8.77734 137.77 9.49609 137.629 10.0898 137.348C10.6914 137.059 11.1523 136.648 11.4727 136.117C11.793 135.586 11.9531 134.953 11.9531 134.219C11.9531 133.57 11.8125 132.988 11.5312 132.473C11.25 131.957 10.8203 131.551 10.2422 131.254C9.66406 130.949 8.92969 130.797 8.03906 130.797H5.05078L5.07422 129.578H9.30469L9.5625 130.012C10.3281 130.09 10.9961 130.328 11.5664 130.727C12.1445 131.117 12.5898 131.613 12.9023 132.215C13.2227 132.816 13.3828 133.477 13.3828 134.195C13.3828 135.227 13.1523 136.102 12.6914 136.82C12.2383 137.531 11.6016 138.074 10.7812 138.449C9.96875 138.816 9.01953 139 7.93359 139ZM21.457 139.234C20.6289 139.234 19.8672 139.082 19.1719 138.777C18.4844 138.473 17.8828 138.043 17.3672 137.488C16.8594 136.934 16.4648 136.277 16.1836 135.52C15.9102 134.754 15.7734 133.918 15.7734 133.012V132.508C15.7734 131.531 15.918 130.648 16.207 129.859C16.4961 129.07 16.8945 128.395 17.4023 127.832C17.9102 127.27 18.4883 126.84 19.1367 126.543C19.793 126.238 20.4805 126.086 21.1992 126.086C22.0039 126.086 22.7188 126.23 23.3438 126.52C23.9688 126.801 24.4922 127.203 24.9141 127.727C25.3438 128.242 25.668 128.855 25.8867 129.566C26.1055 130.27 26.2148 131.047 26.2148 131.898V132.754H16.6172V131.559H24.8203V131.395C24.8047 130.684 24.6602 130.02 24.3867 129.402C24.1211 128.777 23.7227 128.27 23.1914 127.879C22.6602 127.488 21.9961 127.293 21.1992 127.293C20.6055 127.293 20.0586 127.418 19.5586 127.668C19.0664 127.918 18.6406 128.277 18.2812 128.746C17.9297 129.207 17.6562 129.758 17.4609 130.398C17.2734 131.031 17.1797 131.734 17.1797 132.508V133.012C17.1797 133.715 17.2812 134.371 17.4844 134.98C17.6953 135.582 17.9922 136.113 18.375 136.574C18.7656 137.035 19.2266 137.395 19.7578 137.652C20.2891 137.91 20.875 138.039 21.5156 138.039C22.2656 138.039 22.9297 137.902 23.5078 137.629C24.0859 137.348 24.6055 136.906 25.0664 136.305L25.9453 136.984C25.6719 137.391 25.3281 137.766 24.9141 138.109C24.5078 138.453 24.0195 138.727 23.4492 138.93C22.8789 139.133 22.2148 139.234 21.457 139.234ZM32.6016 137.734L36.5508 126.32H38.0625L32.6953 141.039C32.5859 141.328 32.4453 141.648 32.2734 142C32.1094 142.352 31.8906 142.688 31.6172 143.008C31.3516 143.336 31.0156 143.602 30.6094 143.805C30.2109 144.016 29.7227 144.121 29.1445 144.121C28.9961 144.121 28.8047 144.102 28.5703 144.062C28.3438 144.031 28.1797 144 28.0781 143.969L28.0664 142.785C28.1523 142.809 28.2773 142.828 28.4414 142.844C28.6055 142.859 28.7188 142.867 28.7812 142.867C29.2891 142.867 29.7148 142.781 30.0586 142.609C30.4102 142.438 30.7031 142.18 30.9375 141.836C31.1719 141.5 31.3789 141.078 31.5586 140.57L32.6016 137.734ZM28.9102 126.32L32.9531 137.207L33.3281 138.672L32.3086 139.246L27.3867 126.32H28.9102ZM39.3164 132.859V132.473C39.3164 131.551 39.4492 130.699 39.7148 129.918C39.9805 129.137 40.3594 128.461 40.8516 127.891C41.3516 127.32 41.9492 126.879 42.6445 126.566C43.3398 126.246 44.1133 126.086 44.9648 126.086C45.8242 126.086 46.6016 126.246 47.2969 126.566C47.9922 126.879 48.5898 127.32 49.0898 127.891C49.5898 128.461 49.9727 129.137 50.2383 129.918C50.5039 130.699 50.6367 131.551 50.6367 132.473V132.859C50.6367 133.781 50.5039 134.633 50.2383 135.414C49.9727 136.188 49.5898 136.859 49.0898 137.43C48.5977 138 48.0039 138.445 47.3086 138.766C46.6133 139.078 45.8398 139.234 44.9883 139.234C44.1289 139.234 43.3516 139.078 42.6562 138.766C41.9609 138.445 41.3633 138 40.8633 137.43C40.3633 136.859 39.9805 136.188 39.7148 135.414C39.4492 134.633 39.3164 133.781 39.3164 132.859ZM40.7109 132.473V132.859C40.7109 133.555 40.8047 134.215 40.9922 134.84C41.1797 135.457 41.4531 136.008 41.8125 136.492C42.1719 136.969 42.6172 137.344 43.1484 137.617C43.6797 137.891 44.293 138.027 44.9883 138.027C45.6758 138.027 46.2812 137.891 46.8047 137.617C47.3359 137.344 47.7812 136.969 48.1406 136.492C48.5 136.008 48.7695 135.457 48.9492 134.84C49.1367 134.215 49.2305 133.555 49.2305 132.859V132.473C49.2305 131.785 49.1367 131.133 48.9492 130.516C48.7695 129.898 48.4961 129.348 48.1289 128.863C47.7695 128.379 47.3242 127.996 46.793 127.715C46.2617 127.434 45.6523 127.293 44.9648 127.293C44.2773 127.293 43.668 127.434 43.1367 127.715C42.6133 127.996 42.168 128.379 41.8008 128.863C41.4414 129.348 41.168 129.898 40.9805 130.516C40.8008 131.133 40.7109 131.785 40.7109 132.473ZM54.9375 129.027V139H53.543V126.32H54.8789L54.9375 129.027ZM54.6211 131.875L54 131.523C54.0469 130.773 54.1992 130.07 54.457 129.414C54.7148 128.758 55.0625 128.18 55.5 127.68C55.9453 127.18 56.4648 126.789 57.0586 126.508C57.6602 126.227 58.3242 126.086 59.0508 126.086C59.6836 126.086 60.25 126.172 60.75 126.344C61.25 126.516 61.6758 126.789 62.0273 127.164C62.3789 127.539 62.6445 128.02 62.8242 128.605C63.0117 129.191 63.1055 129.906 63.1055 130.75V139H61.6992V130.738C61.6992 129.863 61.5781 129.18 61.3359 128.688C61.0938 128.188 60.75 127.832 60.3047 127.621C59.8594 127.41 59.332 127.305 58.7227 127.305C58.0508 127.305 57.4609 127.453 56.9531 127.75C56.4531 128.039 56.0312 128.418 55.6875 128.887C55.3516 129.348 55.0938 129.844 54.9141 130.375C54.7344 130.898 54.6367 131.398 54.6211 131.875ZM74.9766 136.539V121H76.3828V139H75.0703L74.9766 136.539ZM66.1758 132.789V132.543C66.1758 131.559 66.2891 130.672 66.5156 129.883C66.7422 129.086 67.0664 128.406 67.4883 127.844C67.918 127.273 68.4336 126.84 69.0352 126.543C69.6367 126.238 70.3164 126.086 71.0742 126.086C71.8164 126.086 72.4727 126.207 73.043 126.449C73.6133 126.691 74.1016 127.039 74.5078 127.492C74.9219 127.945 75.2539 128.484 75.5039 129.109C75.7617 129.734 75.9492 130.43 76.0664 131.195V134.324C75.9727 135.043 75.8008 135.703 75.5508 136.305C75.3008 136.898 74.9688 137.418 74.5547 137.863C74.1406 138.301 73.6406 138.641 73.0547 138.883C72.4766 139.117 71.8086 139.234 71.0508 139.234C70.3008 139.234 69.625 139.078 69.0234 138.766C68.4219 138.453 67.9102 138.012 67.4883 137.441C67.0664 136.863 66.7422 136.18 66.5156 135.391C66.2891 134.602 66.1758 133.734 66.1758 132.789ZM67.582 132.543V132.789C67.582 133.531 67.6562 134.219 67.8047 134.852C67.9531 135.484 68.1797 136.035 68.4844 136.504C68.7891 136.973 69.1758 137.34 69.6445 137.605C70.1133 137.871 70.668 138.004 71.3086 138.004C72.1133 138.004 72.7891 137.852 73.3359 137.547C73.8828 137.234 74.3203 136.824 74.6484 136.316C74.9766 135.801 75.2148 135.238 75.3633 134.629V130.984C75.2695 130.57 75.1328 130.148 74.9531 129.719C74.7734 129.289 74.5273 128.895 74.2148 128.535C73.9102 128.168 73.5195 127.875 73.043 127.656C72.5742 127.43 72.0039 127.316 71.332 127.316C70.6836 127.316 70.125 127.449 69.6562 127.715C69.1875 127.98 68.7969 128.352 68.4844 128.828C68.1797 129.297 67.9531 129.848 67.8047 130.48C67.6562 131.113 67.582 131.801 67.582 132.543ZM92.0625 132.051H87.1992V130.82H92.0625C93.0781 130.82 93.9023 130.656 94.5352 130.328C95.1758 129.992 95.6406 129.539 95.9297 128.969C96.2266 128.398 96.375 127.758 96.375 127.047C96.375 126.352 96.2266 125.711 95.9297 125.125C95.6406 124.539 95.1758 124.07 94.5352 123.719C93.9023 123.359 93.0781 123.18 92.0625 123.18H87.7031V139H86.2617V121.938H92.0625C93.3125 121.938 94.3633 122.152 95.2148 122.582C96.0742 123.012 96.7227 123.609 97.1602 124.375C97.5977 125.141 97.8164 126.023 97.8164 127.023C97.8164 128.07 97.5977 128.973 97.1602 129.73C96.7227 130.48 96.0781 131.055 95.2266 131.453C94.375 131.852 93.3203 132.051 92.0625 132.051ZM108.316 136.727V130.188C108.316 129.586 108.191 129.066 107.941 128.629C107.691 128.191 107.324 127.855 106.84 127.621C106.355 127.387 105.758 127.27 105.047 127.27C104.391 127.27 103.805 127.387 103.289 127.621C102.781 127.848 102.379 128.156 102.082 128.547C101.793 128.93 101.648 129.355 101.648 129.824L100.242 129.812C100.242 129.336 100.359 128.875 100.594 128.43C100.828 127.984 101.16 127.586 101.59 127.234C102.02 126.883 102.531 126.605 103.125 126.402C103.727 126.191 104.387 126.086 105.105 126.086C106.012 126.086 106.809 126.238 107.496 126.543C108.191 126.848 108.734 127.305 109.125 127.914C109.516 128.523 109.711 129.289 109.711 130.211V136.34C109.711 136.777 109.742 137.23 109.805 137.699C109.875 138.168 109.973 138.555 110.098 138.859V139H108.609C108.516 138.719 108.441 138.367 108.387 137.945C108.34 137.516 108.316 137.109 108.316 136.727ZM108.645 131.617L108.668 132.695H105.914C105.195 132.695 104.551 132.762 103.98 132.895C103.418 133.02 102.941 133.207 102.551 133.457C102.16 133.699 101.859 133.992 101.648 134.336C101.445 134.68 101.344 135.07 101.344 135.508C101.344 135.961 101.457 136.375 101.684 136.75C101.918 137.125 102.246 137.426 102.668 137.652C103.098 137.871 103.605 137.98 104.191 137.98C104.973 137.98 105.66 137.836 106.254 137.547C106.855 137.258 107.352 136.879 107.742 136.41C108.133 135.941 108.395 135.43 108.527 134.875L109.137 135.684C109.035 136.074 108.848 136.477 108.574 136.891C108.309 137.297 107.961 137.68 107.531 138.039C107.102 138.391 106.594 138.68 106.008 138.906C105.43 139.125 104.773 139.234 104.039 139.234C103.211 139.234 102.488 139.078 101.871 138.766C101.262 138.453 100.785 138.027 100.441 137.488C100.105 136.941 99.9375 136.324 99.9375 135.637C99.9375 135.012 100.07 134.453 100.336 133.961C100.602 133.461 100.984 133.039 101.484 132.695C101.992 132.344 102.602 132.078 103.312 131.898C104.031 131.711 104.836 131.617 105.727 131.617H108.645ZM114.867 128.418V139H113.473V126.32H114.832L114.867 128.418ZM119.355 126.227L119.32 127.516C119.164 127.492 119.012 127.473 118.863 127.457C118.715 127.441 118.555 127.434 118.383 127.434C117.773 127.434 117.238 127.547 116.777 127.773C116.324 127.992 115.941 128.301 115.629 128.699C115.316 129.09 115.078 129.551 114.914 130.082C114.75 130.605 114.656 131.168 114.633 131.77L114.117 131.969C114.117 131.141 114.203 130.371 114.375 129.66C114.547 128.949 114.809 128.328 115.16 127.797C115.52 127.258 115.969 126.84 116.508 126.543C117.055 126.238 117.695 126.086 118.43 126.086C118.609 126.086 118.785 126.102 118.957 126.133C119.137 126.156 119.27 126.188 119.355 126.227ZM128.801 136.727V130.188C128.801 129.586 128.676 129.066 128.426 128.629C128.176 128.191 127.809 127.855 127.324 127.621C126.84 127.387 126.242 127.27 125.531 127.27C124.875 127.27 124.289 127.387 123.773 127.621C123.266 127.848 122.863 128.156 122.566 128.547C122.277 128.93 122.133 129.355 122.133 129.824L120.727 129.812C120.727 129.336 120.844 128.875 121.078 128.43C121.312 127.984 121.645 127.586 122.074 127.234C122.504 126.883 123.016 126.605 123.609 126.402C124.211 126.191 124.871 126.086 125.59 126.086C126.496 126.086 127.293 126.238 127.98 126.543C128.676 126.848 129.219 127.305 129.609 127.914C130 128.523 130.195 129.289 130.195 130.211V136.34C130.195 136.777 130.227 137.23 130.289 137.699C130.359 138.168 130.457 138.555 130.582 138.859V139H129.094C129 138.719 128.926 138.367 128.871 137.945C128.824 137.516 128.801 137.109 128.801 136.727ZM129.129 131.617L129.152 132.695H126.398C125.68 132.695 125.035 132.762 124.465 132.895C123.902 133.02 123.426 133.207 123.035 133.457C122.645 133.699 122.344 133.992 122.133 134.336C121.93 134.68 121.828 135.07 121.828 135.508C121.828 135.961 121.941 136.375 122.168 136.75C122.402 137.125 122.73 137.426 123.152 137.652C123.582 137.871 124.09 137.98 124.676 137.98C125.457 137.98 126.145 137.836 126.738 137.547C127.34 137.258 127.836 136.879 128.227 136.41C128.617 135.941 128.879 135.43 129.012 134.875L129.621 135.684C129.52 136.074 129.332 136.477 129.059 136.891C128.793 137.297 128.445 137.68 128.016 138.039C127.586 138.391 127.078 138.68 126.492 138.906C125.914 139.125 125.258 139.234 124.523 139.234C123.695 139.234 122.973 139.078 122.355 138.766C121.746 138.453 121.27 138.027 120.926 137.488C120.59 136.941 120.422 136.324 120.422 135.637C120.422 135.012 120.555 134.453 120.82 133.961C121.086 133.461 121.469 133.039 121.969 132.695C122.477 132.344 123.086 132.078 123.797 131.898C124.516 131.711 125.32 131.617 126.211 131.617H129.129ZM135.516 121V139H134.121V121H135.516ZM140.906 121V139H139.512V121H140.906ZM149.637 139.234C148.809 139.234 148.047 139.082 147.352 138.777C146.664 138.473 146.062 138.043 145.547 137.488C145.039 136.934 144.645 136.277 144.363 135.52C144.09 134.754 143.953 133.918 143.953 133.012V132.508C143.953 131.531 144.098 130.648 144.387 129.859C144.676 129.07 145.074 128.395 145.582 127.832C146.09 127.27 146.668 126.84 147.316 126.543C147.973 126.238 148.66 126.086 149.379 126.086C150.184 126.086 150.898 126.23 151.523 126.52C152.148 126.801 152.672 127.203 153.094 127.727C153.523 128.242 153.848 128.855 154.066 129.566C154.285 130.27 154.395 131.047 154.395 131.898V132.754H144.797V131.559H153V131.395C152.984 130.684 152.84 130.02 152.566 129.402C152.301 128.777 151.902 128.27 151.371 127.879C150.84 127.488 150.176 127.293 149.379 127.293C148.785 127.293 148.238 127.418 147.738 127.668C147.246 127.918 146.82 128.277 146.461 128.746C146.109 129.207 145.836 129.758 145.641 130.398C145.453 131.031 145.359 131.734 145.359 132.508V133.012C145.359 133.715 145.461 134.371 145.664 134.98C145.875 135.582 146.172 136.113 146.555 136.574C146.945 137.035 147.406 137.395 147.938 137.652C148.469 137.91 149.055 138.039 149.695 138.039C150.445 138.039 151.109 137.902 151.688 137.629C152.266 137.348 152.785 136.906 153.246 136.305L154.125 136.984C153.852 137.391 153.508 137.766 153.094 138.109C152.688 138.453 152.199 138.727 151.629 138.93C151.059 139.133 150.395 139.234 149.637 139.234ZM158.719 121V139H157.324V121H158.719ZM174.34 122.957L168.434 139H166.934L173.379 121.938H174.422L174.34 122.957ZM179.707 139L173.789 122.957L173.707 121.938H174.75L181.207 139H179.707ZM178.652 132.977V134.219H169.594V132.977H178.652ZM191.004 135.766C191.004 135.422 190.918 135.082 190.746 134.746C190.574 134.41 190.242 134.102 189.75 133.82C189.266 133.539 188.551 133.301 187.605 133.105C186.902 132.949 186.273 132.773 185.719 132.578C185.172 132.383 184.711 132.148 184.336 131.875C183.961 131.602 183.676 131.273 183.48 130.891C183.285 130.508 183.188 130.055 183.188 129.531C183.188 129.062 183.289 128.621 183.492 128.207C183.703 127.785 184 127.418 184.383 127.105C184.773 126.785 185.242 126.535 185.789 126.355C186.344 126.176 186.965 126.086 187.652 126.086C188.629 126.086 189.465 126.254 190.16 126.59C190.863 126.918 191.398 127.367 191.766 127.938C192.141 128.508 192.328 129.152 192.328 129.871H190.934C190.934 129.434 190.805 129.02 190.547 128.629C190.297 128.238 189.926 127.918 189.434 127.668C188.949 127.418 188.355 127.293 187.652 127.293C186.926 127.293 186.336 127.402 185.883 127.621C185.43 127.84 185.098 128.117 184.887 128.453C184.684 128.789 184.582 129.137 184.582 129.496C184.582 129.777 184.625 130.035 184.711 130.27C184.805 130.496 184.969 130.707 185.203 130.902C185.445 131.098 185.789 131.281 186.234 131.453C186.68 131.625 187.258 131.793 187.969 131.957C188.992 132.184 189.828 132.461 190.477 132.789C191.133 133.109 191.617 133.508 191.93 133.984C192.242 134.453 192.398 135.023 192.398 135.695C192.398 136.219 192.289 136.699 192.07 137.137C191.852 137.566 191.535 137.938 191.121 138.25C190.715 138.562 190.223 138.805 189.645 138.977C189.074 139.148 188.434 139.234 187.723 139.234C186.652 139.234 185.746 139.059 185.004 138.707C184.27 138.348 183.711 137.879 183.328 137.301C182.953 136.715 182.766 136.094 182.766 135.438H184.16C184.207 136.094 184.414 136.613 184.781 136.996C185.148 137.371 185.598 137.637 186.129 137.793C186.668 137.949 187.199 138.027 187.723 138.027C188.441 138.027 189.043 137.922 189.527 137.711C190.012 137.5 190.379 137.223 190.629 136.879C190.879 136.535 191.004 136.164 191.004 135.766ZM203.168 135.766C203.168 135.422 203.082 135.082 202.91 134.746C202.738 134.41 202.406 134.102 201.914 133.82C201.43 133.539 200.715 133.301 199.77 133.105C199.066 132.949 198.438 132.773 197.883 132.578C197.336 132.383 196.875 132.148 196.5 131.875C196.125 131.602 195.84 131.273 195.645 130.891C195.449 130.508 195.352 130.055 195.352 129.531C195.352 129.062 195.453 128.621 195.656 128.207C195.867 127.785 196.164 127.418 196.547 127.105C196.938 126.785 197.406 126.535 197.953 126.355C198.508 126.176 199.129 126.086 199.816 126.086C200.793 126.086 201.629 126.254 202.324 126.59C203.027 126.918 203.562 127.367 203.93 127.938C204.305 128.508 204.492 129.152 204.492 129.871H203.098C203.098 129.434 202.969 129.02 202.711 128.629C202.461 128.238 202.09 127.918 201.598 127.668C201.113 127.418 200.52 127.293 199.816 127.293C199.09 127.293 198.5 127.402 198.047 127.621C197.594 127.84 197.262 128.117 197.051 128.453C196.848 128.789 196.746 129.137 196.746 129.496C196.746 129.777 196.789 130.035 196.875 130.27C196.969 130.496 197.133 130.707 197.367 130.902C197.609 131.098 197.953 131.281 198.398 131.453C198.844 131.625 199.422 131.793 200.133 131.957C201.156 132.184 201.992 132.461 202.641 132.789C203.297 133.109 203.781 133.508 204.094 133.984C204.406 134.453 204.562 135.023 204.562 135.695C204.562 136.219 204.453 136.699 204.234 137.137C204.016 137.566 203.699 137.938 203.285 138.25C202.879 138.562 202.387 138.805 201.809 138.977C201.238 139.148 200.598 139.234 199.887 139.234C198.816 139.234 197.91 139.059 197.168 138.707C196.434 138.348 195.875 137.879 195.492 137.301C195.117 136.715 194.93 136.094 194.93 135.438H196.324C196.371 136.094 196.578 136.613 196.945 136.996C197.312 137.371 197.762 137.637 198.293 137.793C198.832 137.949 199.363 138.027 199.887 138.027C200.605 138.027 201.207 137.922 201.691 137.711C202.176 137.5 202.543 137.223 202.793 136.879C203.043 136.535 203.168 136.164 203.168 135.766ZM215.859 136.07V126.32H217.266V139H215.918L215.859 136.07ZM216.117 133.727L216.844 133.703C216.844 134.5 216.75 135.234 216.562 135.906C216.375 136.578 216.082 137.164 215.684 137.664C215.285 138.164 214.77 138.551 214.137 138.824C213.504 139.098 212.742 139.234 211.852 139.234C211.234 139.234 210.668 139.148 210.152 138.977C209.645 138.797 209.207 138.516 208.84 138.133C208.473 137.75 208.188 137.254 207.984 136.645C207.789 136.035 207.691 135.297 207.691 134.43V126.32H209.086V134.453C209.086 135.133 209.16 135.699 209.309 136.152C209.465 136.605 209.676 136.969 209.941 137.242C210.215 137.516 210.527 137.711 210.879 137.828C211.23 137.945 211.609 138.004 212.016 138.004C213.047 138.004 213.859 137.805 214.453 137.406C215.055 137.008 215.48 136.484 215.73 135.836C215.988 135.18 216.117 134.477 216.117 133.727ZM222.258 128.945V139H220.852V126.32H222.199L222.258 128.945ZM222 131.875L221.32 131.523C221.367 130.773 221.508 130.07 221.742 129.414C221.984 128.758 222.32 128.18 222.75 127.68C223.18 127.18 223.695 126.789 224.297 126.508C224.898 126.227 225.582 126.086 226.348 126.086C226.965 126.086 227.523 126.172 228.023 126.344C228.531 126.508 228.961 126.77 229.312 127.129C229.672 127.48 229.949 127.941 230.145 128.512C230.34 129.082 230.438 129.766 230.438 130.562V139H229.043V130.609C229.043 129.766 228.91 129.105 228.645 128.629C228.387 128.152 228.023 127.812 227.555 127.609C227.094 127.406 226.559 127.305 225.949 127.305C225.23 127.305 224.621 127.453 224.121 127.75C223.629 128.039 223.227 128.418 222.914 128.887C222.609 129.348 222.383 129.844 222.234 130.375C222.086 130.898 222.008 131.398 222 131.875ZM230.426 130.773L229.488 130.797C229.527 130.18 229.668 129.59 229.91 129.027C230.16 128.465 230.5 127.965 230.93 127.527C231.359 127.082 231.871 126.73 232.465 126.473C233.066 126.215 233.742 126.086 234.492 126.086C235.148 126.086 235.734 126.176 236.25 126.355C236.766 126.527 237.199 126.805 237.551 127.188C237.91 127.562 238.184 128.043 238.371 128.629C238.559 129.215 238.652 129.918 238.652 130.738V139H237.246V130.727C237.246 129.828 237.113 129.133 236.848 128.641C236.59 128.141 236.23 127.793 235.77 127.598C235.309 127.402 234.77 127.305 234.152 127.305C233.543 127.312 233.008 127.426 232.547 127.645C232.086 127.855 231.699 128.137 231.387 128.488C231.082 128.832 230.848 129.203 230.684 129.602C230.527 130 230.441 130.391 230.426 130.773ZM243.598 128.758V143.875H242.191V126.32H243.504L243.598 128.758ZM252.41 132.543V132.789C252.41 133.734 252.301 134.602 252.082 135.391C251.863 136.18 251.547 136.863 251.133 137.441C250.727 138.012 250.223 138.453 249.621 138.766C249.02 139.078 248.336 139.234 247.57 139.234C246.812 139.234 246.137 139.117 245.543 138.883C244.949 138.648 244.438 138.316 244.008 137.887C243.586 137.449 243.246 136.941 242.988 136.363C242.738 135.777 242.562 135.137 242.461 134.441V131.195C242.578 130.43 242.77 129.734 243.035 129.109C243.301 128.484 243.641 127.945 244.055 127.492C244.477 127.039 244.977 126.691 245.555 126.449C246.133 126.207 246.793 126.086 247.535 126.086C248.309 126.086 248.996 126.238 249.598 126.543C250.207 126.84 250.719 127.273 251.133 127.844C251.555 128.406 251.871 129.086 252.082 129.883C252.301 130.672 252.41 131.559 252.41 132.543ZM251.004 132.789V132.543C251.004 131.801 250.926 131.113 250.77 130.48C250.621 129.848 250.391 129.297 250.078 128.828C249.773 128.352 249.383 127.98 248.906 127.715C248.438 127.449 247.879 127.316 247.23 127.316C246.559 127.316 245.984 127.43 245.508 127.656C245.039 127.875 244.648 128.168 244.336 128.535C244.023 128.895 243.777 129.289 243.598 129.719C243.418 130.148 243.285 130.57 243.199 130.984V134.723C243.348 135.316 243.586 135.867 243.914 136.375C244.242 136.875 244.68 137.277 245.227 137.582C245.781 137.879 246.457 138.027 247.254 138.027C247.895 138.027 248.449 137.895 248.918 137.629C249.387 137.363 249.773 136.992 250.078 136.516C250.391 136.039 250.621 135.484 250.77 134.852C250.926 134.219 251.004 133.531 251.004 132.789ZM260.32 126.32V127.469H253.969V126.32H260.32ZM256.301 123.062H257.695V135.918C257.695 136.504 257.773 136.945 257.93 137.242C258.086 137.539 258.289 137.738 258.539 137.84C258.789 137.941 259.059 137.992 259.348 137.992C259.559 137.992 259.762 137.98 259.957 137.957C260.152 137.926 260.328 137.895 260.484 137.863L260.543 139.047C260.371 139.102 260.148 139.145 259.875 139.176C259.602 139.215 259.328 139.234 259.055 139.234C258.516 139.234 258.039 139.137 257.625 138.941C257.211 138.738 256.887 138.395 256.652 137.91C256.418 137.418 256.301 136.75 256.301 135.906V123.062ZM264.82 126.32V139H263.426V126.32H264.82ZM263.18 122.664C263.18 122.391 263.262 122.164 263.426 121.984C263.598 121.797 263.836 121.703 264.141 121.703C264.43 121.703 264.66 121.797 264.832 121.984C265.012 122.164 265.102 122.391 265.102 122.664C265.102 122.914 265.012 123.133 264.832 123.32C264.66 123.5 264.43 123.59 264.141 123.59C263.836 123.59 263.598 123.5 263.426 123.32C263.262 123.133 263.18 122.914 263.18 122.664ZM267.879 132.859V132.473C267.879 131.551 268.012 130.699 268.277 129.918C268.543 129.137 268.922 128.461 269.414 127.891C269.914 127.32 270.512 126.879 271.207 126.566C271.902 126.246 272.676 126.086 273.527 126.086C274.387 126.086 275.164 126.246 275.859 126.566C276.555 126.879 277.152 127.32 277.652 127.891C278.152 128.461 278.535 129.137 278.801 129.918C279.066 130.699 279.199 131.551 279.199 132.473V132.859C279.199 133.781 279.066 134.633 278.801 135.414C278.535 136.188 278.152 136.859 277.652 137.43C277.16 138 276.566 138.445 275.871 138.766C275.176 139.078 274.402 139.234 273.551 139.234C272.691 139.234 271.914 139.078 271.219 138.766C270.523 138.445 269.926 138 269.426 137.43C268.926 136.859 268.543 136.188 268.277 135.414C268.012 134.633 267.879 133.781 267.879 132.859ZM269.273 132.473V132.859C269.273 133.555 269.367 134.215 269.555 134.84C269.742 135.457 270.016 136.008 270.375 136.492C270.734 136.969 271.18 137.344 271.711 137.617C272.242 137.891 272.855 138.027 273.551 138.027C274.238 138.027 274.844 137.891 275.367 137.617C275.898 137.344 276.344 136.969 276.703 136.492C277.062 136.008 277.332 135.457 277.512 134.84C277.699 134.215 277.793 133.555 277.793 132.859V132.473C277.793 131.785 277.699 131.133 277.512 130.516C277.332 129.898 277.059 129.348 276.691 128.863C276.332 128.379 275.887 127.996 275.355 127.715C274.824 127.434 274.215 127.293 273.527 127.293C272.84 127.293 272.23 127.434 271.699 127.715C271.176 127.996 270.73 128.379 270.363 128.863C270.004 129.348 269.73 129.898 269.543 130.516C269.363 131.133 269.273 131.785 269.273 132.473ZM283.5 129.027V139H282.105V126.32H283.441L283.5 129.027ZM283.184 131.875L282.562 131.523C282.609 130.773 282.762 130.07 283.02 129.414C283.277 128.758 283.625 128.18 284.062 127.68C284.508 127.18 285.027 126.789 285.621 126.508C286.223 126.227 286.887 126.086 287.613 126.086C288.246 126.086 288.812 126.172 289.312 126.344C289.812 126.516 290.238 126.789 290.59 127.164C290.941 127.539 291.207 128.02 291.387 128.605C291.574 129.191 291.668 129.906 291.668 130.75V139H290.262V130.738C290.262 129.863 290.141 129.18 289.898 128.688C289.656 128.188 289.312 127.832 288.867 127.621C288.422 127.41 287.895 127.305 287.285 127.305C286.613 127.305 286.023 127.453 285.516 127.75C285.016 128.039 284.594 128.418 284.25 128.887C283.914 129.348 283.656 129.844 283.477 130.375C283.297 130.898 283.199 131.398 283.184 131.875ZM302.895 135.766C302.895 135.422 302.809 135.082 302.637 134.746C302.465 134.41 302.133 134.102 301.641 133.82C301.156 133.539 300.441 133.301 299.496 133.105C298.793 132.949 298.164 132.773 297.609 132.578C297.062 132.383 296.602 132.148 296.227 131.875C295.852 131.602 295.566 131.273 295.371 130.891C295.176 130.508 295.078 130.055 295.078 129.531C295.078 129.062 295.18 128.621 295.383 128.207C295.594 127.785 295.891 127.418 296.273 127.105C296.664 126.785 297.133 126.535 297.68 126.355C298.234 126.176 298.855 126.086 299.543 126.086C300.52 126.086 301.355 126.254 302.051 126.59C302.754 126.918 303.289 127.367 303.656 127.938C304.031 128.508 304.219 129.152 304.219 129.871H302.824C302.824 129.434 302.695 129.02 302.438 128.629C302.188 128.238 301.816 127.918 301.324 127.668C300.84 127.418 300.246 127.293 299.543 127.293C298.816 127.293 298.227 127.402 297.773 127.621C297.32 127.84 296.988 128.117 296.777 128.453C296.574 128.789 296.473 129.137 296.473 129.496C296.473 129.777 296.516 130.035 296.602 130.27C296.695 130.496 296.859 130.707 297.094 130.902C297.336 131.098 297.68 131.281 298.125 131.453C298.57 131.625 299.148 131.793 299.859 131.957C300.883 132.184 301.719 132.461 302.367 132.789C303.023 133.109 303.508 133.508 303.82 133.984C304.133 134.453 304.289 135.023 304.289 135.695C304.289 136.219 304.18 136.699 303.961 137.137C303.742 137.566 303.426 137.938 303.012 138.25C302.605 138.562 302.113 138.805 301.535 138.977C300.965 139.148 300.324 139.234 299.613 139.234C298.543 139.234 297.637 139.059 296.895 138.707C296.16 138.348 295.602 137.879 295.219 137.301C294.844 136.715 294.656 136.094 294.656 135.438H296.051C296.098 136.094 296.305 136.613 296.672 136.996C297.039 137.371 297.488 137.637 298.02 137.793C298.559 137.949 299.09 138.027 299.613 138.027C300.332 138.027 300.934 137.922 301.418 137.711C301.902 137.5 302.27 137.223 302.52 136.879C302.77 136.535 302.895 136.164 302.895 135.766Z" fill="white"/>
</svg>
